<?xml version="1.0" encoding="UTF-8" standalone="no"?>
<svg
   xmlns:dc="http://purl.org/dc/elements/1.1/"
   xmlns:cc="http://creativecommons.org/ns#"
   xmlns:rdf="http://www.w3.org/1999/02/22-rdf-syntax-ns#"
   xmlns:svg="http://www.w3.org/2000/svg"
   xmlns="http://www.w3.org/2000/svg"
   xmlns:sodipodi="http://sodipodi.sourceforge.net/DTD/sodipodi-0.dtd"
   xmlns:inkscape="http://www.inkscape.org/namespaces/inkscape"
   viewBox="0 0 960 384"
   height="384"
   width="960"
   xml:space="preserve"
   id="svg2"
   version="1.1"
   sodipodi:docname="Subnetting_Concept-en.svg"
   inkscape:version="0.92.3 (2405546, 2018-03-11)"><sodipodi:namedview
     pagecolor="#ffffff"
     bordercolor="#666666"
     borderopacity="1"
     objecttolerance="10"
     gridtolerance="10"
     guidetolerance="10"
     inkscape:pageopacity="0"
     inkscape:pageshadow="2"
     inkscape:window-width="1366"
     inkscape:window-height="705"
     id="namedview88"
     showgrid="false"
     inkscape:zoom="0.32708333"
     inkscape:cx="53.503185"
     inkscape:cy="192"
     inkscape:window-x="-8"
     inkscape:window-y="-8"
     inkscape:window-maximized="1"
     inkscape:current-layer="svg2" /><metadata
     id="metadata8"><rdf:RDF><cc:Work
         rdf:about=""><dc:format>image/svg+xml</dc:format><dc:type
           rdf:resource="http://purl.org/dc/dcmitype/StillImage" /></cc:Work></rdf:RDF></metadata><defs
     id="defs6"><clipPath
       id="clipPath18"
       clipPathUnits="userSpaceOnUse"><path
         style="clip-rule:evenodd"
         id="path16"
         d="M 0,9.1553e-5 H 720 V 288.00009 H 0 Z" /></clipPath><clipPath
       id="clipPath32"
       clipPathUnits="userSpaceOnUse"><path
         style="clip-rule:evenodd"
         id="path30"
         d="M 1.0729e-5,0 H 720.00001 V 288 H 1.0729e-5 Z" /></clipPath><clipPath
       id="clipPath48"
       clipPathUnits="userSpaceOnUse"><path
         style="clip-rule:evenodd"
         id="path46"
         d="M 1.0729e-5,0 H 720.00001 V 288 H 1.0729e-5 Z" /></clipPath><clipPath
       id="clipPath64"
       clipPathUnits="userSpaceOnUse"><path
         style="clip-rule:evenodd"
         id="path62"
         d="M 1.0729e-5,0 H 720.00001 V 288 H 1.0729e-5 Z" /></clipPath><clipPath
       id="clipPath80"
       clipPathUnits="userSpaceOnUse"><path
         style="clip-rule:evenodd"
         id="path78"
         d="M 1.0729e-5,0 H 720.00001 V 288 H 1.0729e-5 Z" /></clipPath><clipPath
       id="clipPath96"
       clipPathUnits="userSpaceOnUse"><path
         style="clip-rule:evenodd"
         id="path94"
         d="M 1.0729e-5,0 H 720.00001 V 288 H 1.0729e-5 Z" /></clipPath><clipPath
       id="clipPath112"
       clipPathUnits="userSpaceOnUse"><path
         style="clip-rule:evenodd"
         id="path110"
         d="M 1.0729e-5,0 H 720.00001 V 288 H 1.0729e-5 Z" /></clipPath><clipPath
       id="clipPath124"
       clipPathUnits="userSpaceOnUse"><path
         style="clip-rule:evenodd"
         id="path122"
         d="M 1.0729e-5,0 H 720.00001 V 288 H 1.0729e-5 Z" /></clipPath><clipPath
       id="clipPath136"
       clipPathUnits="userSpaceOnUse"><path
         style="clip-rule:evenodd"
         id="path134"
         d="M 1.0729e-5,0 H 720.00001 V 288 H 1.0729e-5 Z" /></clipPath><clipPath
       id="clipPath148"
       clipPathUnits="userSpaceOnUse"><path
         style="clip-rule:evenodd"
         id="path146"
         d="M 1.0729e-5,0 H 720.00001 V 288 H 1.0729e-5 Z" /></clipPath><clipPath
       id="clipPath160"
       clipPathUnits="userSpaceOnUse"><path
         style="clip-rule:evenodd"
         id="path158"
         d="M -1.5259e-5,288 H 720 V 3.0518e-5 H -1.5259e-5" /></clipPath><clipPath
       id="clipPath170"
       clipPathUnits="userSpaceOnUse"><path
         style="clip-rule:evenodd"
         id="path168"
         d="M 1.0729e-5,0 H 720.00001 V 288 H 1.0729e-5 Z" /></clipPath></defs><path
     inkscape:connector-curvature="0"
     d="m 182.24,170.24001 h 374.07999 v -61.92 H 182.24 Z"
     style="fill:#5b9bd5;fill-opacity:1;fill-rule:evenodd;stroke:none;stroke-width:1.33333325"
     id="path22" /><path
     inkscape:connector-curvature="0"
     d="m 182.24,170.24001 h 374.07999 v -61.92 H 182.24 Z"
     style="fill:none;stroke:#000000;stroke-width:1.27999997;stroke-linecap:butt;stroke-linejoin:miter;stroke-miterlimit:10;stroke-dasharray:none;stroke-opacity:1"
     id="path24" /><g
     id="g26"
     transform="matrix(1.3333333,0,0,-1.3333333,0,384)"><g
       id="g28"
       clip-path="url(#clipPath32)"><text
   transform="matrix(1,0,0,-1,198.38,176.62)"
   style="font-variant:normal;font-weight:bold;font-size:20.54400063px;font-family:Calibri;-inkscape-font-specification:Calibri-Bold;writing-mode:lr-tb;fill:#000000;fill-opacity:1;fill-rule:nonzero;stroke:none"
   id="text36"><tspan
     x="0 13.538496 23.769407 30.898176 45.97747 57.030144 64.323265 74.184387 78.745155 83.798973 94.8311 105.16473 115.95033 123.0791 128.07129 134.5632 139.61702 149.95065"
     y="0"
     id="tspan34">Network identifier</tspan></text>

</g></g><path
     inkscape:connector-curvature="0"
     d="m 556.31999,170.24001 h 369.91999 v -61.92 H 556.31999 Z"
     style="fill:#ffff00;fill-opacity:1;fill-rule:evenodd;stroke:none;stroke-width:1.33333325"
     id="path38" /><path
     inkscape:connector-curvature="0"
     d="m 556.31999,170.24001 h 369.91999 v -61.92 H 556.31999 Z"
     style="fill:none;stroke:#000000;stroke-width:1.27999997;stroke-linecap:butt;stroke-linejoin:miter;stroke-miterlimit:10;stroke-dasharray:none;stroke-opacity:1"
     id="path40" /><g
     id="g42"
     transform="matrix(1.3333333,0,0,-1.3333333,0,384)"><g
       id="g44"
       clip-path="url(#clipPath48)"><text
   transform="matrix(1,0,0,-1,494.93,176.62)"
   style="font-variant:normal;font-weight:bold;font-size:20.54400063px;font-family:Calibri;-inkscape-font-specification:Calibri-Bold;writing-mode:lr-tb;fill:#000000;fill-opacity:1;fill-rule:nonzero;stroke:none"
   id="text52"><tspan
     x="0 12.963264 24.015936 31.925377 39.054146 43.779263 48.833088 59.865215 70.198845 80.984451 88.113213 93.105408 99.597313 104.65114 114.98477"
     y="0"
     id="tspan50">Host identifier</tspan></text>

</g></g><path
     inkscape:connector-curvature="0"
     d="M 182.24,345.92 H 556.31999 V 284 H 182.24 Z"
     style="fill:#5b9bd5;fill-opacity:1;fill-rule:evenodd;stroke:none;stroke-width:1.33333325"
     id="path54" /><path
     inkscape:connector-curvature="0"
     d="M 182.24,345.92 H 556.31999 V 284 H 182.24 Z"
     style="fill:none;stroke:#000000;stroke-width:1.27999997;stroke-linecap:butt;stroke-linejoin:miter;stroke-miterlimit:10;stroke-dasharray:none;stroke-opacity:1"
     id="path56" /><g
     id="g58"
     transform="matrix(1.3333333,0,0,-1.3333333,0,384)"><g
       id="g60"
       clip-path="url(#clipPath64)"><text
   transform="matrix(1,0,0,-1,198.38,44.808)"
   style="font-variant:normal;font-weight:bold;font-size:20.52000046px;font-family:Calibri;-inkscape-font-specification:Calibri-Bold;writing-mode:lr-tb;fill:#000000;fill-opacity:1;fill-rule:nonzero;stroke:none"
   id="text68"><tspan
     x="0 13.52268 23.762159 30.882601 45.964802 57.004559 64.289162 74.138763 78.776283 83.824203 94.843437 105.165 115.91748 123.03792 128.08585 134.57016 139.61807 149.87808"
     y="0"
     id="tspan66">Network identifier</tspan></text>

</g></g><path
     inkscape:connector-curvature="0"
     d="m 766.55998,345.92 h 159.68 V 284 h -159.68 z"
     style="fill:#ffff00;fill-opacity:1;fill-rule:evenodd;stroke:none;stroke-width:1.33333325"
     id="path70" /><path
     inkscape:connector-curvature="0"
     d="m 766.55998,345.92 h 159.68 V 284 h -159.68 z"
     style="fill:none;stroke:#000000;stroke-width:1.27999997;stroke-linecap:butt;stroke-linejoin:miter;stroke-miterlimit:10;stroke-dasharray:none;stroke-opacity:1"
     id="path72" /><g
     id="g74"
     transform="matrix(1.3333333,0,0,-1.3333333,0,384)"><g
       id="g76"
       clip-path="url(#clipPath80)"><text
   transform="matrix(1,0,0,-1,581.16,45.696)"
   style="font-variant:normal;font-weight:bold;font-size:18px;font-family:Calibri;-inkscape-font-specification:Calibri-Bold;writing-mode:lr-tb;fill:#000000;fill-opacity:1;fill-rule:nonzero;stroke:none"
   id="text84"><tspan
     x="0 11.358 21.096001 28.062 34.307999 38.268002 42.695999 52.416 61.523998 71.117996 77.363998 81.683998 87.372002 91.800003 100.854"
     y="0"
     id="tspan82">Host identifier</tspan></text>

</g></g><path
     inkscape:connector-curvature="0"
     d="M 556.31999,345.92 H 766.55998 V 284 H 556.31999 Z"
     style="fill:#70ad47;fill-opacity:1;fill-rule:evenodd;stroke:none;stroke-width:1.33333325"
     id="path86" /><path
     inkscape:connector-curvature="0"
     d="M 556.31999,345.92 H 766.55998 V 284 H 556.31999 Z"
     style="fill:none;stroke:#000000;stroke-width:1.27999997;stroke-linecap:butt;stroke-linejoin:miter;stroke-miterlimit:10;stroke-dasharray:none;stroke-opacity:1"
     id="path88" /><g
     id="g90"
     transform="matrix(1.3333333,0,0,-1.3333333,0,384)"><g
       id="g92"
       clip-path="url(#clipPath96)"><text
   transform="matrix(1,0,0,-1,433.34,45.696)"
   style="font-variant:normal;font-weight:bold;font-size:18px;font-family:Calibri;-inkscape-font-specification:Calibri-Bold;writing-mode:lr-tb;fill:#000000;fill-opacity:1;fill-rule:nonzero;stroke:none"
   id="text100"><tspan
     x="0 8.5139999 18.216 27.917999 37.619999 46.493999 52.740002 56.574001 61.001999 70.722 79.830002 89.316002 95.561996 99.989998 105.678 110.106 119.07 125.46"
     y="0"
     id="tspan98">Subnet identifier </tspan></text>

</g></g><path
     inkscape:connector-curvature="0"
     d="m 742.82665,168.96001 98.29333,106.31466 -2.94667,2.716 -98.28,-106.31066 z m 99.86666,102.13066 3.74667,12.88533 -12.56,-4.73866 z"
     style="fill:#000000;fill-opacity:1;fill-rule:nonzero;stroke:none;stroke-width:1.33333325"
     id="path102" /><path
     inkscape:connector-curvature="0"
     d="m 739.74665,169.17334 -74.12,105.47066 3.28,2.3 74.10666,-105.47733 z m -76.24,101.53466 -1.98667,13.268 11.81334,-6.36933 z"
     style="fill:#000000;fill-opacity:1;fill-rule:nonzero;stroke:none;stroke-width:1.33333325"
     id="path104" /><g
     id="g106"
     transform="matrix(1.3333333,0,0,-1.3333333,0,384)"><g
       id="g108"
       clip-path="url(#clipPath112)"><text
   transform="matrix(1,0,0,-1,40.68,186.34)"
   style="font-variant:normal;font-weight:bold;font-size:18px;font-family:Calibri;-inkscape-font-specification:Calibri-Bold;writing-mode:lr-tb;fill:#000000;fill-opacity:1;fill-rule:nonzero;stroke:none"
   id="text116"><tspan
     x="0 10.098 19.08 24.48 34.164001 40.32 49.428001"
     y="0"
     id="tspan114">Before </tspan></text>

</g></g><g
     id="g118"
     transform="matrix(1.3333333,0,0,-1.3333333,0,384)"><g
       id="g120"
       clip-path="url(#clipPath124)"><text
   transform="matrix(1,0,0,-1,27.36,164.74)"
   style="font-variant:normal;font-weight:bold;font-size:18px;font-family:Calibri;-inkscape-font-specification:Calibri-Bold;writing-mode:lr-tb;fill:#000000;fill-opacity:1;fill-rule:nonzero;stroke:none"
   id="text128"><tspan
     x="0 7.1820002 16.902 26.604 36.306 45.18 51.174 57.419998 61.848 71.459999"
     y="0"
     id="tspan126">subnetting</tspan></text>

</g></g><g
     id="g130"
     transform="matrix(1.3333333,0,0,-1.3333333,0,384)"><g
       id="g132"
       clip-path="url(#clipPath136)"><text
   transform="matrix(1,0,0,-1,43.392,58.944)"
   style="font-variant:normal;font-weight:bold;font-size:18px;font-family:Calibri;-inkscape-font-specification:Calibri-Bold;writing-mode:lr-tb;fill:#000000;fill-opacity:1;fill-rule:nonzero;stroke:none"
   id="text140"><tspan
     x="0 10.908 16.596001 22.59 31.698 38.088001"
     y="0"
     id="tspan138">After </tspan></text>

</g></g><g
     id="g142"
     transform="matrix(1.3333333,0,0,-1.3333333,0,384)"><g
       id="g144"
       clip-path="url(#clipPath148)"><text
   transform="matrix(1,0,0,-1,24.432,37.344)"
   style="font-variant:normal;font-weight:bold;font-size:18.02400017px;font-family:Calibri;-inkscape-font-specification:Calibri-Bold;writing-mode:lr-tb;fill:#000000;fill-opacity:1;fill-rule:nonzero;stroke:none"
   id="text152"><tspan
     x="0 7.191576 16.870464 26.621449 36.300335 45.222218 51.224209 57.478535 61.912441 71.501205"
     y="0"
     id="tspan150">subnetting</tspan></text>

</g></g><g
     id="g154"
     transform="matrix(1.3333333,0,0,-1.3333333,0,384)"><g
       id="g156"
       clip-path="url(#clipPath160)"><path
         inkscape:connector-curvature="0"
         d="m 136.08,206.76 c 0,7.75 15.02,14.04 33.54,14.04 h 211.86 c 18.52,0 33.54,6.29 33.54,14.04 0,-7.75 15.02,-14.04 33.54,-14.04 h 211.86 c 18.52,0 33.54,-6.29 33.54,-14.04"
         style="fill:none;stroke:#000000;stroke-width:0.47999999;stroke-linecap:butt;stroke-linejoin:miter;stroke-miterlimit:10;stroke-dasharray:none;stroke-opacity:1"
         id="path162" /></g></g><g
     id="g164"
     transform="matrix(1.3333333,0,0,-1.3333333,0,384)"><g
       id="g166"
       clip-path="url(#clipPath170)"><text
   transform="matrix(1,0,0,-1,376.63,243.53)"
   style="font-variant:normal;font-weight:bold;font-size:18px;font-family:Calibri;-inkscape-font-specification:Calibri-Bold;writing-mode:lr-tb;fill:#000000;fill-opacity:1;fill-rule:nonzero;stroke:none"
   id="text174"><tspan
     x="0 4.8060002 14.382 18.450001 27.341999 37.062 46.764 52.883999 61.992001 69.174004"
     y="0"
     id="tspan172">IP address</tspan></text>

</g></g></svg>