<svg id="Layer_1" enable-background="new 0 0 512 512" height="512" viewBox="0 0 512 512" width="512" xmlns="http://www.w3.org/2000/svg"><g><g><path d="m428.435 449.05h-269.783c-17.836 0-32.296-14.459-32.296-32.296v-376.458c.001-17.837 14.46-32.296 32.296-32.296h269.782c17.836 0 32.296 14.459 32.296 32.296v376.459c.001 17.836-14.459 32.295-32.295 32.295z" fill="#e4eef9"/><path d="m428.435 431.05h-269.782c-17.836 0-32.296-14.459-32.296-32.295v18c0 17.836 14.459 32.295 32.296 32.295h269.783c17.836 0 32.296-14.459 32.296-32.295v-18c-.001 17.836-14.461 32.295-32.297 32.295z" fill="#d5e0f2"/><path d="m152.854 55.858h281.38v328.805h-281.38z" fill="#86dcff"/><path d="m152.854 366.663h281.38v18h-281.38z" fill="#56caed"/><path d="m166.218 449.051c40.313-61.929-10.412-126.819-10.412-126.819s9.278-37.771 15.496-70.7c2.715-14.381-1.374-24.144-6.843-30.579-6.569-7.731-18.881-6.345-23.599 2.636l-53.563 101.96c-6.475 12.326-8.712 26.44-6.364 40.164l4.557 26.634c3.787 22.134.261 44.899-10.045 64.85l-24.176 46.803h175.119l15.374-22.477s42.915-8.852 63.747-32.47z" fill="#ffe0cc"/><g><path d="m166.305 449.052c-3.914 5.957-8.857 11.975-15.008 18l130.189.001c8.842-4.678 17.511-10.618 24.022-18z" fill="#ffceb3"/></g><ellipse cx="293.544" cy="415.282" fill="#405b6c" rx="13.618" ry="13.618" transform="matrix(.987 -.16 .16 .987 -62.731 52.383)"/><path d="m293.548 245.733h-87.782c-5.518 0-9.99-4.473-9.99-9.99v-114.307c0-5.518 4.473-9.99 9.99-9.99h87.782z" fill="#405b6c"/><path d="m195.776 217.743v18c0 5.518 4.473 9.99 9.99 9.99h87.782v-18h-87.782c-5.517 0-9.99-4.473-9.99-9.99z" fill="#2d4456"/><path d="m293.548 245.733h87.782c5.518 0 9.99-4.473 9.99-9.99v-114.307c0-5.518-4.473-9.99-9.99-9.99h-87.782z" fill="#2d4456"/><path d="m381.33 227.733h-87.782v18h87.782c5.518 0 9.99-4.473 9.99-9.99v-18c.001 5.517-4.472 9.99-9.99 9.99z" fill="#253847"/><path d="m293.55 111.445-.004.028v-.028s-24.741-28.06-69.219 0v110.704c44.478-28.06 69.219 0 69.219 0v-.026l.004.026s24.741-28.06 69.219 0v-110.704c-44.477-28.06-69.219 0-69.219 0z" fill="#f2fdff"/><path d="m293.55 204.149-.004.003v-.003s-24.741-28.06-69.219 0v18c44.478-28.06 69.219 0 69.219 0v-.006l.004.006s24.741-28.06 69.219 0v-18c-44.477-28.06-69.219 0-69.219 0z" fill="#d3ecf5"/></g><g><g><path d="m272.458 415.594c0 11.667 9.492 21.159 21.16 21.159s21.159-9.492 21.159-21.159-9.491-21.16-21.159-21.16-21.16 9.493-21.16 21.16zm27.288 0c0 3.381-2.749 6.13-6.129 6.13-3.381 0-6.13-2.749-6.13-6.13s2.75-6.13 6.13-6.13 6.129 2.749 6.129 6.13z"/><path d="m322.424 38.87c4.151 0 7.515-3.364 7.515-7.515s-3.364-7.515-7.515-7.515h-30.389c-4.151 0-7.515 3.364-7.515 7.515s3.364 7.515 7.515 7.515z"/><path d="m274.085 31.411c0-4.181-3.39-7.571-7.571-7.571s-7.571 3.39-7.571 7.571c0 4.182 3.39 7.571 7.571 7.571 4.181.001 7.571-3.389 7.571-7.571z"/><path d="m428.773 0h-270.311c-21.986 0-39.874 17.888-39.874 39.874v85.371c0 4.151 3.364 7.515 7.515 7.515s7.515-3.364 7.515-7.515v-85.371c0-13.7 11.145-24.844 24.844-24.844h270.311c13.699 0 24.843 11.145 24.843 24.844v377.196c0 13.7-11.145 24.844-24.843 24.844h-249.898c7.501-15.419 10.919-32.048 10.15-49.484h245.558c4.151 0 7.515-3.364 7.515-7.515v-81.127c0-4.151-3.364-7.515-7.515-7.515s-7.515 3.364-7.515 7.515v73.612h-239.705c-.615-3.483-1.387-6.991-2.323-10.523-5.943-22.431-16.682-39.466-21.31-46.119 2.423-10.072 9.673-40.74 14.79-67.839 3.432-18.177-2.736-30.099-8.514-36.899-2.649-3.118-6.069-5.374-9.839-6.61v-146.429h266.901v210.748c0 4.151 3.364 7.515 7.515 7.515s7.515-3.364 7.515-7.515v-218.262c0-4.151-3.364-7.515-7.515-7.515h-281.932c-4.151 0-7.515 3.364-7.515 7.515v154.467c-4.738 1.919-8.716 5.454-11.156 10.098l-.364.693v-65.421c0-4.151-3.364-7.515-7.515-7.515s-7.515 3.364-7.515 7.515v94.029l-38.273 72.857c-7.214 13.732-9.747 29.715-7.131 45.005l4.565 26.687c3.497 20.437.182 41.839-9.333 60.261l-24.222 46.893c-1.203 2.33-1.106 5.118.258 7.358 1.363 2.239 3.796 3.606 6.418 3.606h175.462c2.48 0 4.802-1.224 6.203-3.272l13.745-20.095c10.157-2.471 42.998-11.705 62.585-31.69h119.911c21.986 0 39.873-17.887 39.873-39.874v-377.195c-.001-21.986-17.888-39.874-39.874-39.874zm-188.557 474.605c-1.907.393-3.586 1.511-4.685 3.117l-13.166 19.249h-159.157l18.56-35.931c11.004-21.306 14.838-46.057 10.794-69.693l-4.565-26.687c-2.062-12.054-.066-24.655 5.622-35.48l53.668-102.16c2.046-4.224 8.344-4.953 11.266-1.27 5.321 6.262 7.071 14.465 5.198 24.379-6.118 32.406-15.346 70.064-15.438 70.44-.548 2.231-.039 4.599 1.371 6.413.142.182 14.264 18.55 20.952 44.211 8.72 33.464 1.245 63.265-22.219 88.576-2.822 3.043-2.642 7.798.402 10.619 3.043 2.821 7.798 2.643 10.619-.402 3.904-4.212 7.416-8.566 10.558-13.044h114.791c-19.783 12.391-44.259 17.598-44.571 17.663z"/><path d="m399.1 235.704v-114.532c0-9.663-7.861-17.525-17.525-17.525h-16.471c-14.012-8.457-34.474-16.552-55.665-10.229-6.948 2.075-12.222 5.177-15.817 7.817-3.595-2.64-8.869-5.742-15.817-7.817-21.194-6.328-41.652 1.771-55.665 10.229h-16.472c-9.663 0-17.525 7.861-17.525 17.525v114.531c0 9.663 7.861 17.524 17.525 17.524h175.907c9.664.001 17.525-7.86 17.525-17.523zm-167.319-120.299c30.064-17.27 48.561-5.787 54.326-1.003v93.207c-2.439-1.206-5.197-2.342-8.301-3.27-16.735-4.997-33.015-.997-46.024 5.071v-94.005zm-28.608 120.299v-114.532c0-1.376 1.119-2.495 2.495-2.495h11.083v103.406c-.181 5.735 6.771 9.567 11.524 6.355 32.181-20.301 51.901-8.05 57.831-3.124v12.884h-80.438c-1.376.001-2.495-1.119-2.495-2.494zm97.963-10.381c5.985-4.968 25.695-17.159 57.833 3.116 4.751 3.215 11.706-.622 11.524-6.355v-40.342c0-4.151-3.364-7.515-7.515-7.515s-7.515 3.364-7.515 7.515v27.668c-13.01-6.068-29.292-10.066-46.025-5.071-3.105.928-5.864 2.065-8.303 3.27v-93.207c5.763-4.784 24.259-16.27 54.328 1.003v36.278c0 4.151 3.364 7.515 7.515 7.515s7.515-3.364 7.515-7.515v-33.006h11.082c1.376 0 2.495 1.119 2.495 2.495v114.531c0 1.376-1.119 2.495-2.495 2.495h-80.439z"/><path d="m371.177 282.116h-155.111c-4.151 0-7.515 3.364-7.515 7.515s3.364 7.515 7.515 7.515h155.111c4.151 0 7.515-3.364 7.515-7.515 0-4.152-3.364-7.515-7.515-7.515z"/><path d="m371.177 320.67h-155.111c-4.151 0-7.515 3.364-7.515 7.515s3.364 7.515 7.515 7.515h155.111c4.151 0 7.515-3.364 7.515-7.515s-3.364-7.515-7.515-7.515z"/></g></g></g></svg>