<?xml version="1.0" encoding="UTF-8"?>
<svg preserveAspectRatio="xMidYMid" version="1.1" viewBox="0 0 256 348" xmlns="http://www.w3.org/2000/svg">
<path d="m3.6856 188.16c0.49805 10.26 10.758 5.4786 15.34 2.291 4.3829-3.0879 5.6778-0.49805 6.0763-6.4747 0.29883-3.9844 0.69728-7.8693 0.49805-11.854-6.6739-0.59766-13.846 0.99611-19.325 4.9805-2.8887 1.9922-8.0685 8.5665-2.5899 11.057" fill="#F6D2A2"/>
<path d="m208.19 314.27c7.8693 4.8809 22.313 19.623 10.459 26.795-11.356 10.36-17.731-11.455-27.692-14.444 4.2833-5.877 9.6623-11.256 17.233-12.352z" fill="#F6D2A2"/>
<path d="m67.337 330.91c-9.2638 1.3946-14.444 9.7619-22.213 14.045-7.2716 4.2833-10.061-1.3946-10.658-2.5899-1.0957-0.49806-0.99611 0.49805-2.7891-1.2949-6.7735-10.658 6.9728-18.428 14.145-23.707 9.9611-1.9922 16.237 6.6739 21.516 13.547z" fill="#F6D2A2"/>
<path d="m251.92 186.87c-0.49805 10.26-10.758 5.4786-15.34 2.291-4.3829-3.0879-5.6778-0.49805-6.0763-6.4747-0.29883-3.9844-0.69728-7.8693-0.49806-11.854 6.6739-0.59767 13.846 0.99611 19.325 4.9805 2.7891 1.9922 8.0685 8.5665 2.5899 11.057" fill="#F6D2A2"/>
<path d="m224.72 61.759c35.561-12.551 7.7696-61.261-23.209-39.745-20.321-17.432-48.311-20.619-77.696-20.619-28.788 2.2911-56.181 7.5704-75.306 24.305-30.879-19.922-59.368 27.891-23.11 39.944-10.16 39.446 1.3946 79.689-0.19922 119.83-1.4942 36.059-10.957 84.37 9.0646 116.74 17.033 27.692 53.69 37.553 83.872 38.649 38.549 1.3946 85.267-8.0685 103.99-45.423 17.93-35.561 12.949-79.888 10.658-118.24-2.291-38.749 1.9922-78.095-8.0685-115.45z" fill="#69D7E2"/>
<path d="m254.61 180.79c-0.99611-2.0918-2.8887-4.4825-4.6817-5.7774-4.5821-3.2872-10.459-5.0802-16.535-5.2794-0.19922-6.1759-0.39844-12.949-0.39844-21.516v-7.7696c-0.099611-24.504-0.39844-35.262-1.793-48.71-1.0957-10.559-2.7891-20.321-5.1798-29.485 8.0685-3.0879 13.348-8.1681 15.44-14.742 1.9922-6.0763 0.99611-12.949-2.3907-19.026-3.4864-5.9767-9.0646-10.459-15.539-12.252-6.9728-1.8926-14.543-0.49805-21.815 4.3829-6.4747-5.4786-13.946-9.6623-22.313-12.85-14.842-5.4786-32.075-7.5704-55.483-7.5704v0.99611l-0.099611-0.99611c-25.002 1.9922-43.53 5.877-58.87 13.348-6.1759 2.9883-11.654 6.5743-16.436 10.758-7.3712-4.5821-15.041-5.6778-22.114-3.4864-6.5743 1.9922-12.252 6.6739-15.639 12.75-3.3868 6.0763-4.1837 13.049-1.8926 19.026 2.2911 5.9767 7.5704 10.658 15.44 13.547-2.4903 10.061-3.7852 20.719-3.9844 32.473-0.19922 11.455 0.29883 20.619 2.0918 41.339 1.2949 15.44 1.793 22.512 1.9922 31.079-6.7735-0.29883-13.547 1.4942-18.627 5.1798-1.793 1.2949-3.7852 3.586-4.6817 5.7774-1.2949 2.7891-0.79689 5.2794 1.793 6.7735 0.39844 4.7813 3.0879 6.9728 7.172 6.5743 2.9883-0.29883 6.5743-1.8926 9.6623-4.084 0.69728-0.49805 1.3946-0.8965 2.0918-1.1953 0.29883-0.099611 0.49805-0.19922 0.79689-0.29883 0 0 0.59767-0.19922 0.79689-0.29883 0.29883-0.099611 0.59767-0.19922 0.79689-0.39844-0.19922 4.6817-0.59767 9.5626-1.4942 20.719-0.99611 12.551-1.4942 19.424-1.6934 27.094-0.8965 28.489 2.4903 49.208 12.651 65.644 3.1875 5.1798 7.0724 9.7619 11.654 13.946-0.8965 0.59767-4.6817 3.3868-5.877 4.2833-4.1837 3.1875-7.0724 5.877-8.7658 8.8654-2.1914 3.8848-2.1914 7.7696 0.29883 11.854l0.19922 0.19922c1.0957 1.0957 1.6934 1.3946 2.4903 1.3946h0.099611 0.19922c0.099611 0.19922 0.19922 0.29883 0.29883 0.49806 0.29883 0.49805 0.59767 0.8965 0.8965 1.2949 2.4903 2.8887 5.9767 3.586 10.658 0.79689 2.4903-1.2949 4.2833-2.7891 8.0685-5.9767 0.099611-0.099611 0.099611-0.099611 0.19922-0.19922 6.0763-5.1798 9.0646-7.0724 13.547-7.7696l1.5938-0.29883c0.59767 0.29883 1.1953 0.49806 1.8926 0.79689 14.145 5.6778 30.581 8.7658 47.216 9.3634 21.516 0.79689 42.235-1.8926 59.767-8.2677 4.6817-1.6934 9.0646-3.6856 13.248-5.877 2.5899 0.99611 4.7813 3.0879 8.965 7.9689 0.19922 0.19922 0.19922 0.19922 0.29883 0.39844 0.19922 0.19922 0.19922 0.29883 0.29883 0.39844 0.19922 0.29883 0.49806 0.49806 0.69728 0.79689 3.2872 3.8848 5.4786 5.7774 7.9689 6.8732 3.2872 1.3946 6.4747 0.69728 9.7619-2.291 5.7774-3.586 6.1759-9.1642 2.3907-15.539-2.6895-4.4825-7.3712-9.1642-11.754-12.153 5.1798-5.0802 9.6623-11.156 13.149-18.03 9.5626-19.125 13.248-41.438 13.049-70.126-0.099611-10.16-0.49806-19.026-1.5938-35.96v-0.49806c0.49805 0.19922 0.99611 0.49806 1.4942 0.8965 3.0879 2.0918 6.6739 3.7852 9.6623 4.084 4.084 0.39844 6.7735-1.793 7.172-6.5743 2.4903-1.5938 2.9883-4.084 1.6934-6.8732zm-31.676-162.47c5.9767 1.5938 11.156 5.7774 14.344 11.356 3.1875 5.5782 4.084 11.854 2.291 17.432-1.8926 5.877-6.6739 10.559-14.145 13.348-1.4942-5.379-3.2872-10.658-5.2794-15.739 2.8887-2.4903 4.2833-5.5782 1.9922-9.9611-2.2911-4.3829-6.2755-4.8809-10.36-3.586-2.5899-3.3868-5.4786-6.3751-8.4669-9.1642 6.5743-4.1837 13.348-5.379 19.623-3.6856zm-212.37 33.668c-2.0918-5.379-1.3946-11.754 1.793-17.332 3.1875-5.5782 8.3673-9.9611 14.543-11.754 6.3751-1.8926 13.248-0.99611 20.022 2.9883-3.8848 3.4864-7.3712 7.4708-10.36 11.854-5.1798-2.6895-10.459-3.1875-13.447 2.2911-3.0879 5.877 0.49805 9.5626 5.5782 12.352-0.69728 1.6934-1.3946 3.4864-1.9922 5.2794-0.69728 2.1914-1.3946 4.4825-1.9922 6.7735-7.2716-2.7891-12.053-7.0724-14.145-12.451zm12.053 135.77c-0.099611 0-0.69728 0.19922-0.69728 0.29883-0.29883 0.099611-0.59767 0.19922-0.8965 0.39844-0.79689 0.29883-1.5938 0.79689-2.3907 1.3946-2.7891 1.9922-6.1759 3.4864-8.7658 3.6856-2.9883 0.29883-4.6817-0.99611-4.9805-4.5821 2.0918-0.69728 2.9883-1.1953 3.7852-2.3907l-1.5938-1.1953c-0.59767 0.79689-1.1953 1.0957-2.9883 1.6934-0.099611 0-0.099611 0-0.19922 0.099611-1.5938-0.8965-1.8926-2.2911-0.99611-4.2833 0.79689-1.793 2.5899-3.8848 4.084-4.9805 4.7813-3.4864 11.156-5.1798 17.532-4.7813 0 2.4903 0.099611 4.9805 0 7.3712 0 0.29883 0 0.49805-0.099611 0.79689-0.099611 1.3946-0.099611 1.9922-0.19922 2.6895-0.29883 2.8887-0.49805 3.2872-1.5938 3.7852zm30.082 150.31c-0.099611 0.099611-0.099611 0.099611-0.19922 0.19922-3.6856 3.1875-5.4786 4.4825-7.7696 5.7774-3.7852 2.2911-6.3751 1.793-8.1681-0.39844-0.29883-0.29883-0.49805-0.69728-0.69728-0.99611-0.099611-0.099611-0.19922-0.29883-0.29883-0.39844v-0.099611c0.19922-1.793 0.8965-3.0879 2.6895-5.877 0.099611-0.099611 0.099611-0.099611 0.099611-0.19922 1.0957-1.5938 1.5938-2.4903 2.0918-3.586l-1.793-0.79689c-0.39844 0.8965-0.8965 1.6934-1.8926 3.2872-0.099611 0.099611-0.099611 0.099611-0.099611 0.19922-1.793 2.5899-2.5899 4.1837-2.9883 5.9767h-0.099611-0.099611-0.19922c-0.19922-0.099611-0.49805-0.29883-0.8965-0.69728-3.8848-6.1759-0.79689-11.455 7.9689-18.03 1.0957-0.79689 4.7813-3.3868 5.7774-4.1837 0.19922 0 0.39844-0.099611 0.59767-0.19922 5.379 4.5821 11.654 8.5665 18.627 11.854 0 0.099611 0.099611 0.19922 0.19922 0.29883-4.084 0.99611-7.2716 3.0879-12.85 7.8693zm167.25-10.858c3.0879 5.1798 2.9883 9.3634-0.8965 12.252-0.29883-0.59766-0.49805-1.2949-0.8965-2.2911 0-0.099611 0-0.099611-0.099611-0.19922-1.3946-3.7852-2.2911-5.379-3.9844-7.172l-1.3946 1.3946c1.4942 1.3946 2.1914 2.8887 3.586 6.3751 0 0.099611 0 0.099611 0.099611 0.19922 0.49805 1.2949 0.79689 2.0918 1.0957 2.7891-2.5899 2.1914-4.8809 2.5899-7.2716 1.4942-2.0918-0.8965-4.084-2.7891-7.2716-6.3751-0.19922-0.19922-0.39844-0.49806-0.59766-0.79689-0.099611-0.099611-0.19922-0.19922-0.29883-0.39844-0.19922-0.19922-0.19922-0.19922-0.29883-0.39844-3.6856-4.2833-5.877-6.5743-8.2677-7.8693 5.5782-3.1875 10.559-6.7735 15.041-10.957 4.1837 3.0879 8.8654 7.67 11.455 11.953zm1.3946-32.274c-8.5665 17.233-23.707 29.385-44.028 36.756-17.332 6.2755-37.852 8.8654-59.069 8.0685-36.557-1.2949-68.233-14.045-83.075-38.151-9.9611-16.037-13.248-36.458-12.352-64.548 0.29883-7.67 0.69728-14.543 1.6934-27.094 1.0957-14.145 1.3946-18.229 1.6934-24.604 0.19922-4.5821 0.19922-9.2638 0.099611-14.244-0.19922-8.7658-0.69728-15.739-1.9922-31.377-1.793-20.719-2.2911-29.784-2.0918-41.139 0.29883-14.942 2.2911-28.09 6.4747-40.542 6.7735-20.221 19.225-33.868 37.155-42.733 15.041-7.3712 33.27-11.156 58.073-13.149 23.209 0 40.143 2.0918 54.786 7.4708 17.532 6.4747 30.581 17.83 39.546 35.262 5.7774 14.145 9.1642 29.385 10.957 46.917 1.3946 13.348 1.6934 24.106 1.793 48.511v7.7696c0.099611 12.053 0.29883 20.52 0.79689 28.987 0.19922 3.2872 0.29883 4.6817 0.79689 12.551 1.0957 16.934 1.4942 25.7 1.5938 35.86 0.19922 28.588-3.3868 50.602-12.85 69.429zm30.481-109.07c-0.09961 0-0.19922-0.099611-0.29883-0.099611-1.793-0.59766-2.3907-0.99611-2.9883-1.6934l-1.5938 1.1953c0.8965 1.1953 1.793 1.6934 3.7852 2.3907-0.39844 3.586-2.0918 4.8809-4.9805 4.5821-2.5899-0.19922-5.9767-1.793-8.7658-3.6856-0.79689-0.59766-1.5938-0.99611-2.3907-1.3946-0.099611 0-0.19922-0.099611-0.29883-0.099611-0.39844-5.4786-0.39844-6.8732-0.59766-9.7619l-0.29883-5.379c5.5782 0.099611 11.057 1.793 15.24 4.8809 1.4942 1.0957 3.2872 3.1875 4.084 4.9805 0.99611 1.6934 0.79689 3.1875-0.8965 4.084z"/>
<g transform="translate(108.93 96.951)">
<path d="m29.983 7.172c0.099611 5.0802 1.0957 10.658 0.19922 16.037-1.3946 2.5899-3.9844 2.8887-6.2755 3.8848-3.1875-0.49805-5.877-2.5899-7.172-5.5782-0.79689-6.0763 0.19922-11.854 0.49805-17.93 0-0.19922 3.7852 0.099611 7.172 1.0957 2.8887 0.8965 5.5782 2.3907 5.5782 2.4903z" fill="#fff"/>
<path d="m1.793 7.5704c-2.7891 10.559 3.6856 27.791 14.344 13.647-0.79689-5.9767 0.099611-11.754 0.39844-17.631 0.099611-0.49805-14.643 3.2872-14.742 3.9844z" fill="#fff"/>
<path d="m31.178 11.854c-0.19922-2.9883-0.29883-4.1837-0.29883-5.6778v-0.69728l-0.69728-0.19922-12.551-3.8848v-0.69728l-1.2949 0.29883h-0.099611v0.099611l-14.145 3.586-0.49805 0.099611-0.19922 0.49805c-2.1914 5.2794-1.6934 13.248 1.0957 18.129 3.1875 5.5782 8.3673 5.6778 13.647-0.69728 1.4942 2.8887 4.2833 4.8809 7.4708 5.379h0.29883l0.29883-0.099611c0.39844-0.19922 0.79689-0.29883 1.4942-0.59767 0.099611 0 0.099611 0 0.19922-0.099611 2.8887-0.99611 4.084-1.793 5.0802-3.6856l0.099611-0.099611v-0.19922c0.29883-1.793 0.39844-3.6856 0.39844-5.7774 0-1.4942-0.099611-2.8887-0.29883-5.6778zm-15.938-3.6856c-0.099611 1.793-0.19922 2.4903-0.29883 3.4864-0.19922 3.6856-0.19922 6.4747 0.099611 9.2638-4.6817 5.9767-8.3673 5.9767-10.858 1.4942-2.3907-4.1837-2.8887-11.256-1.0957-15.938l12.551-3.1875c-0.099611 1.2949-0.19922 2.5899-0.39844 4.8809zm13.946 14.742c-0.69728 1.1953-1.5938 1.793-3.9844 2.5899-0.099611 0-0.099611 0-0.19922 0.099611-0.59767 0.19922-0.99611 0.39844-1.2949 0.49805-2.6895-0.49805-4.9805-2.2911-6.0763-4.7813-0.29883-2.6895-0.29883-5.4786-0.099611-9.1642 0.099611-0.99611 0.099611-1.6934 0.29883-3.4864 0.19922-2.2911 0.29883-3.6856 0.29883-4.9805l10.858 3.2872c0 1.2949 0.099611 2.4903 0.29883 5.0802 0.19922 2.6895 0.29883 4.084 0.29883 5.6778 0 1.8926-0.099611 3.586-0.39844 5.1798z"/>
</g>
<g transform="translate(48.476 21.976)">
<path d="m2.2911 38.749c9.1642 35.661 66.241 26.496 64.05-9.2638-2.5899-42.833-72.816-34.565-64.05 9.2638" fill="#fff"/>
<path d="m67.337 29.385c-0.59767-10.36-5.1798-18.428-12.75-23.508-6.7735-4.5821-15.739-6.3751-24.604-5.2794-8.8654 1.1953-17.033 5.1798-22.412 11.455-5.9767 6.9728-8.2677 16.137-6.1759 26.696l0.8965-0.19922-0.8965 0.19922c9.3634 36.657 68.134 27.791 65.942-9.3634zm-64.149 9.1642c-1.9922-10.061 0.19922-18.627 5.7774-25.102 5.0802-5.877 12.75-9.7619 21.217-10.858 8.4669-1.0957 16.934 0.59767 23.309 4.9805 7.0724 4.7813 11.356 12.252 11.953 22.114 2.0918 34.764-53.391 43.132-62.257 8.8654z"/>
<ellipse cx="18.03" cy="32.872" rx="9.6623" ry="10.459"/>
<ellipse cx="22.412" cy="35.262" rx="2.2911" ry="2.6895" fill="#fff"/>
</g>
<g transform="translate(129.62 18.098)">
<path d="m1.1953 35.96c7.0724 40.94 74.011 30.082 64.349-11.156-8.6661-37.055-66.739-26.795-64.349 11.156" fill="#fff"/>
<path d="m66.44 24.604c-8.8654-38.151-68.632-27.692-66.241 11.455v0.099611c3.2872 19.325 20.52 29.186 39.546 25.998 8.6661-1.4942 16.436-5.6778 21.516-11.854 5.5782-6.8732 7.5704-15.739 5.1798-25.7zm-6.6739 24.504c-4.7813 5.7774-12.053 9.7619-20.321 11.156-18.03 2.9883-34.167-6.2755-37.354-24.405-2.1914-36.856 54.188-46.718 62.556-10.858 2.1914 9.463 0.39844 17.731-4.8809 24.106z"/>
<ellipse cx="17.631" cy="34.167" rx="9.463" ry="10.459"/>
<ellipse cx="22.014" cy="36.557" rx="2.1914" ry="2.6895" fill="#fff"/>
</g>
<g transform="translate(99.536 70.451)">
<path d="m13.248 12.551c-7.8693 0.69728-14.244 9.9611-10.16 17.332 5.379 9.7619 17.432-0.8965 24.903 0.099611 8.6661 0.19922 15.739 9.1642 22.612 1.5938 7.67-8.3673-3.2872-16.535-11.953-20.121l-25.401 1.0957z" fill="#F6D2A2"/>
<path d="m51.598 19.225c-2.6895-3.3868-7.3712-6.4747-12.451-8.5665l-0.19922-0.099611h-0.19922l-25.5 0.99611c-8.8654 0.79689-15.24 11.057-10.957 18.826 1.6934 2.9883 3.9844 4.4825 7.0724 4.6817 2.2911 0.099611 4.6817-0.39844 8.3673-1.6934 0.29883-0.099611 0.69728-0.19922 1.1953-0.39844 4.9805-1.6934 6.9728-2.1914 8.965-1.8926h0.099611c2.3907 0 4.3829 0.69728 8.1681 2.1914 4.1837 1.6934 5.4786 2.1914 7.5704 2.3907 2.8887 0.19922 5.379-0.79689 7.67-3.2872 3.8848-4.2833 3.6856-8.8654 0.19922-13.149zm-1.6934 11.754c-1.8926 2.0918-3.7852 2.7891-6.0763 2.6895-1.793-0.099611-2.9883-0.59767-6.9728-2.1914-3.9844-1.6934-6.1759-2.2911-8.7658-2.3907-2.4903-0.29883-4.5821 0.19922-9.8615 1.9922-0.49805 0.19922-0.8965 0.29883-1.1953 0.39844-7.2716 2.4903-10.758 2.2911-13.149-2.0918-3.586-6.4747 1.8926-15.24 9.3634-15.938l25.202-0.99611c4.7813 1.9922 9.0646 4.8809 11.555 7.9689 2.9883 3.586 3.0879 7.172-0.099611 10.559z" fill="#231F20"/>
<g transform="translate(11.953)">
<path d="m28.688 8.2677c-3.0879-11.356-28.987-9.6623-28.389 3.8848 1.2949 10.061 31.377 7.3712 28.389-3.8848z"/>
</g>
</g>
</svg>
