<?xml version="1.0" encoding="UTF-8"?>
<svg version="1.1" viewBox="0 0 350 240" xml:space="preserve" xmlns="http://www.w3.org/2000/svg" xmlns:cc="http://creativecommons.org/ns#" xmlns:dc="http://purl.org/dc/elements/1.1/" xmlns:rdf="http://www.w3.org/1999/02/22-rdf-syntax-ns#"><metadata><rdf:RDF><cc:Work rdf:about=""><dc:format>image/svg+xml</dc:format><dc:type rdf:resource="http://purl.org/dc/dcmitype/StillImage"/><dc:title/></cc:Work></rdf:RDF></metadata><defs><clipPath id="s"><path d="m366.67 2446s127.72 141.37 216.18 199.96c28.183 18.65 237.8 128.95 372.4-250.67 73.64-207.85 74.87-362.68-92.516-428.71-100.23-39.55-64.41-113.59-64.41-113.59"/></clipPath><linearGradient id="e" x2="1" gradientTransform="matrix(870.83 -648.98 -648.98 -870.83 1062.3 2048.8)" gradientUnits="userSpaceOnUse"><stop stop-color="#8c9bd6" offset="0"/><stop stop-color="#505e9b" offset="1"/></linearGradient><clipPath id="o"><path d="m2084.2 2364.1h268.24c22.51 0 40.74-14.93 40.74-33.29 0-18.37-18.23-33.27-40.74-33.27h-210.54z"/></clipPath><linearGradient id="b" x2="1" gradientTransform="matrix(878.07 -654.38 -654.38 -878.07 1631.8 2795.2)" gradientUnits="userSpaceOnUse"><stop stop-color="#808fd0" offset="0"/><stop stop-color="#505e9b" offset="1"/></linearGradient><clipPath id="n"><path d="m1150.1 1702.1v-535.82c0-132.12-131.1-179.47-292.78-179.47-161.71 0-292.75 47.351-292.75 179.47v542.14"/></clipPath><linearGradient id="a" x2="1" gradientTransform="matrix(867.01 -646.14 -646.14 -867.01 668.28 1536)" gradientUnits="userSpaceOnUse"><stop stop-color="#8c9bd6" offset="0"/><stop stop-color="#505e9b" offset="1"/></linearGradient><clipPath id="m"><path d="m2045.8 1695.5v-535.81c0-132.14-131.09-179.47-292.78-179.47-161.7 0-292.79 47.328-292.79 179.47v542.13"/></clipPath><linearGradient id="l" x2="1" gradientTransform="matrix(867 -646.13 -646.13 -867 994.5 1953.8)" gradientUnits="userSpaceOnUse"><stop stop-color="#8c9bd6" offset="0"/><stop stop-color="#505e9b" offset="1"/></linearGradient><clipPath id="x"><path d="m903.8 2433.9c114.03-185.4 101.88-342.02-50.055-424.12-90.965-49.18-40.887-114.04-40.887-114.04"/></clipPath><linearGradient id="k" x2="1" gradientTransform="matrix(841.6 -627.2 -627.2 -841.6 1039.4 2029.9)" gradientUnits="userSpaceOnUse"><stop stop-color="#808fd0" offset="0"/><stop stop-color="#505e9b" offset="1"/></linearGradient><clipPath id="w"><path d="m1569.9 2565.3s-189.32 2.23-881.04-20.69c-691.68-22.91-666.16-270.94-667.23-627.14v-856.76c0-72.468 62.793-101.7 140.27-101.7 77.469 0 140.36 29.231 140.36 101.7 0 0 17.863 244.81 33.285 393.73 34.5 541.01 687.58-88.96 1162.3-59.56 431.41 26.74 771.15 175.65 771.15 529.54 0 353.97-222.65 640.88-699.12 640.88z"/></clipPath><linearGradient id="j" x2="1" gradientTransform="matrix(875.23 -652.26 -652.26 -875.23 894.63 1822.2)" gradientUnits="userSpaceOnUse"><stop stop-color="#8c9bd6" offset="0"/><stop stop-color="#505e9b" offset="1"/></linearGradient><clipPath id="v"><path d="m40.508 1894c0.7383-80.46-10.578-783.24 33.809-825.44-13.945 31.12 16.562 711.97 16.172 754.76l-0.4102 25.04v35.37c-17.109 6.32-33.715 14.09-49.746 22.98z"/></clipPath><linearGradient id="i" x2="1" gradientTransform="matrix(579.5 -844.59 -844.59 -579.5 -304.16 2039)" gradientUnits="userSpaceOnUse"><stop stop-color="#fafafd" offset="0"/><stop stop-color="#8892d2" offset="1"/></linearGradient><clipPath id="u"><path d="m1569.6 2541.8s-185.21 2.18-862-20.24c-676.77-22.42-666.38-271.78-666.38-607.02l0.1406-12.4c15.664-8.89 31.898-16.66 48.559-22.99 0.1563 317.27 13.648 550.06 666.41 571.68 676.77 22.42 862.04 20.24 862.04 20.24 258.82 0 437-87.38 547.94-223.71-102.14 176.42-295.52 294.44-596.7 294.44z"/></clipPath><linearGradient id="h" x2="1" gradientTransform="matrix(675.25 -984.14 -984.14 -675.25 649.97 2737.7)" gradientUnits="userSpaceOnUse"><stop stop-color="#fafafd" offset="0"/><stop stop-color="#8892d2" offset="1"/></linearGradient><clipPath id="t"><path d="m1333.9 1456.3v-381.58c0-132.12-131.13-179.57-292.82-179.57-161.7 0-292.76 47.45-292.76 179.57v580.79"/></clipPath><linearGradient id="g" x2="1" gradientTransform="matrix(866.56 -645.8 -645.8 -866.56 654.53 1514.4)" gradientUnits="userSpaceOnUse"><stop stop-color="#8c9bd6" offset="0"/><stop stop-color="#505e9b" offset="1"/></linearGradient><clipPath id="r"><path d="m2229.9 1718.5v-628.88c0-132.11-131.12-179.53-292.81-179.53-161.71 0-292.75 47.418-292.75 179.53v361.33"/></clipPath><linearGradient id="f" x2="1" gradientTransform="matrix(869.57 -648.04 -648.04 -869.57 1046.6 2028.6)" gradientUnits="userSpaceOnUse"><stop stop-color="#8c9bd6" offset="0"/><stop stop-color="#505e9b" offset="1"/></linearGradient><clipPath id="q"><path d="m571.88 2500.6s171.53 117.93 279.87 158.35c34.531 12.89 283.67 78.71 324.06-351.49 22.08-235.55-17.68-398.24-210.83-427.71-115.59-17.66-97.691-103.81-97.691-103.81"/></clipPath><linearGradient id="d" x2="1" gradientTransform="matrix(868.24 -647.05 -647.05 -868.24 1098.5 2096)" gradientUnits="userSpaceOnUse"><stop stop-color="#8c9bd6" offset="0"/><stop stop-color="#505e9b" offset="1"/></linearGradient><clipPath id="p"><path d="m747.34 2531.8c194.21 121.45 302.03 59.35 302.03 59.35-84.444 77.21-179.44 51.62-200.44 43.74-107.97-40.42-316.48-189.8-316.48-189.8s-28.195-50.01 27.989-39.16c0 0 122.21 85.38 186.91 125.87z"/></clipPath><linearGradient id="c" x2="1" gradientTransform="matrix(690.11 -1005.8 -1005.8 -690.11 633.6 2727.3)" gradientUnits="userSpaceOnUse"><stop stop-color="#fafafd" offset="0"/><stop stop-color="#8892d2" offset="1"/></linearGradient></defs><g transform="matrix(.99619 0 0 .98808 8.1338e-7 -101.85)"><g transform="matrix(.13333 0 0 -.13333 0 462.55)"><g clip-path="url(#s)"><path d="m366.67 2446s127.72 141.37 216.18 199.96c28.183 18.65 237.8 128.95 372.4-250.67 73.64-207.85 74.87-362.68-92.516-428.71-100.23-39.55-64.41-113.59-64.41-113.59" fill="url(#e)"/></g></g><path d="m76.082 107.46c-11.964 7.924-28.667 26.349-29.371 27.128-1.0443 1.1587-0.92187 2.92 0.2808 3.928 1.1995 1.0067 3.0224 0.89066 4.0681-0.26934 0.16987-0.188 16.932-18.679 28.288-26.197 0.34013-0.22933 8.6245-5.5893 18.714-2.364 10.61 3.3933 19.802 15.288 26.574 34.393 10.781 30.42 7.5833 46.48-10.694 53.684-5.2728 2.0853-8.7443 5.0987-10.315 8.9747-2.0724 5.112 0.1104 9.7293 0.20467 9.9267 0.66667 1.3853 2.3604 1.9733 3.7989 1.3387 1.4423-0.628 2.0824-2.272 1.4396-3.668-0.0109-0.0267-1.2437-2.7653-0.0421-5.6347 0.988-2.368 3.3749-4.3187 7.0964-5.7827 27.573-10.881 21.947-38.123 13.968-60.643-7.4848-21.111-17.649-33.849-30.213-37.871-12.559-4.0173-22.687 2.324-23.797 3.056" fill="#363254"/><g transform="matrix(.13333 0 0 -.13333 0 462.55)"><g clip-path="url(#o)"><path d="m2084.2 2364.1h268.24c22.51 0 40.74-14.93 40.74-33.29 0-18.37-18.23-33.27-40.74-33.27h-210.54l-57.7 66.56" fill="url(#b)"/></g></g><path d="m313.66 150.12c1.5013 0 2.5453 0.87467 2.5453 1.6573 0 0.78134-1.044 1.656-2.5453 1.656h-26.724c-0.57466-0.65866-1.4347-1.66-2.8693-3.3133h29.593zm-41.935-5.5627 12.515 14.44h29.42c4.588 0 8.316-3.2387 8.316-7.22 0-3.9827-3.728-7.22-8.316-7.22h-41.935" fill="#363254"/><path d="m324.72 137.02c4.9173-2.3427 10.664-1.7693 12.849 1.2787 2.1747 3.056-0.0453 7.42-4.9613 9.772-4.908 2.34-17.775 5.1707-19.956 2.1107-2.184-3.048 7.1587-10.82 12.068-13.161" fill="#8b9dd7"/><path d="m326 139.51c3.8147-1.816 8.0027-1.304 9.1973 0.36666 0.332 0.468 0.40933 1.0053 0.236 1.648-0.308 1.16-1.5493 2.832-4.1027 4.052-4.7413 2.2587-13.161 3.584-15.763 2.944 0.96-2.156 6.2267-7.0027 10.432-9.0107zm-2.552-4.9853c-4.112 1.956-12.475 8.192-13.797 13.121l0.63466 4.1107c3.9507 5.5493 19.889 0.57734 23.605-1.1973 3.7013-1.7667 6.2987-4.5507 7.128-7.6387 0.59334-2.2013 0.21334-4.4027-1.0707-6.2013-3.012-4.208-10.255-5.1707-16.5-2.1947" fill="#363254"/><path d="m333.46 155.03c5.272 1.76 8.208 5.836 6.5813 9.108-1.6413 3.276-7.2347 4.492-12.503 2.7267-5.26-1.756-15.84-8.3773-14.207-11.645 1.64-3.2827 14.868-1.9493 20.128-0.18934" fill="#8b9dd7"/><path d="m334.41 152.4h-5e-3zm-1.8933 5.252h3e-3c2.832 0.95067 4.3827 2.5307 4.8853 3.696 0.38266 0.89067 0.124 1.4133 0.036 1.584-0.86667 1.736-4.8867 2.6613-8.9547 1.3-4.6493-1.5507-10.9-5.92-12.077-7.9307 2.1813-0.73066 11.021-0.352 16.108 1.3507zm-21.78-3.644 3e-3 4.036c2.0307 4.7173 11.401 9.9587 15.859 11.448 6.704 2.2467 13.755 0.424 16.041-4.1427 0.48667-0.98533 0.72934-2.0427 0.72934-3.1147 0-1.0107-0.21334-2.032-0.64267-3.032-1.292-2.9933-4.324-5.4693-8.3213-6.8027-3.988-1.3373-20.655-4.428-23.668 1.608" fill="#363254"/><path d="m334.23 144.94c7.8227-0.0507 14.195 2.768 14.224 6.3027 0.0387 3.5333-6.2667 6.4373-14.093 6.488-7.8107 0.0533-25.512-2.684-25.548-6.2147-0.036-3.5387 17.605-6.5173 25.417-6.576" fill="#8b9dd7"/><path d="m345.57 151.27c0 0.13466-0.12534 0.39733-0.476 0.74133-1.4133 1.3907-5.3867 2.9027-10.751 2.9373-6.708 0.0453-17.319-1.7747-21.401-3.464 4.0533-1.752 14.612-3.716 21.311-3.7613h-3e-3c7.408-0.0493 11.313 2.612 11.32 3.5467zm-11.357-9.1133h-4e-3c-5.6827 0.0413-22.559 2.0427-26.888 6.2853l-1.3907 3.1027c0.08 8.1787 28.168 8.9707 28.452 8.9707 6.2947-0.044 11.977-1.8053 14.828-4.6013 1.4133-1.3853 2.148-3.0067 2.1293-4.6987-0.044-5.308-7.248-9.12-17.127-9.0587" fill="#363254"/><g transform="matrix(.13333 0 0 -.13333 0 462.55)"><g clip-path="url(#n)"><path d="m1150.1 1702.1v-535.82c0-132.12-131.1-179.47-292.78-179.47-161.71 0-292.75 47.351-292.75 179.47v542.14" fill="url(#a)"/></g></g><path d="m72.395 234.76v72.285c0 17.228 14.882 26.712 41.917 26.712 27.034 0 41.922-9.4843 41.922-26.712v-71.443c0-1.5373-1.292-2.784-2.884-2.784-1.5933 0-2.884 1.2467-2.884 2.784v71.443c0 17.48-19.657 21.147-36.154 21.147-16.49 0-36.148-3.6667-36.148-21.147v-72.285c0-1.5347-1.2928-2.7813-2.8849-2.7813-1.5917 0-2.8839 1.2467-2.8839 2.7813" fill="#363254"/><path d="m92.386 306.96c0 7.1267-4.1312 12.92-9.2296 12.92-5.0989 0-9.2313-5.7933-9.2313-12.92 0-7.14 4.1324-23.26 9.2313-23.26 5.0984 0 9.2296 16.12 9.2296 23.26" fill="#8b9dd7"/><path d="m74.888 306.96c0-7.764 4.3781-22.333 8.2688-22.333 3.8891 0 8.2687 14.569 8.2687 22.333 0 6.616-3.7072 11.995-8.2687 11.995-4.5584 0-8.2688-5.3787-8.2688-11.995zm-1.9249 0c0 7.636 4.5713 13.851 10.194 13.851 5.6203 0 10.19-6.2147 10.19-13.851 0-6.9747-4.0595-24.191-10.19-24.191-6.1287 0-10.194 17.216-10.194 24.191" fill="#363254"/><path d="m76.412 308.25c0-6.8653 4.9959-19.225 8.6427-19.225 0.34947 0 0.69173 0.17467 1.0213 0.44-0.91147-2.176-1.9557-3.616-3.062-3.616-3.6495 0-6.602 15.539-6.602 22.401" fill="#a6bde6"/><path d="m96.74 313.82c0 5.5067-3.2844 9.972-7.3391 9.972-4.0584 0-7.3475-4.4653-7.3475-9.972 0-5.5227 3.2891-17.96 7.3475-17.96 4.0547 0 7.3391 12.437 7.3391 17.96" fill="#8b9dd7"/><path d="m83.014 313.82c0-5.772 3.4496-17.031 6.3865-17.031 2.9375 0 6.3765 11.259 6.3765 17.031 0 4.9853-2.862 9.044-6.3765 9.044-3.5235 0-6.3865-4.0587-6.3865-9.044zm-1.9223 0c0 6.008 3.7276 10.9 8.3088 10.9 4.5744 0 8.3005-4.892 8.3005-10.9 0-4.7013-2.9453-18.888-8.3005-18.888-5.3636 0-8.3088 14.187-8.3088 18.888" fill="#363254"/><path d="m85.141 310.54c-0.36933-3.924 3.0729-10.437 5.7547-10.913 0.25107-0.0333 0.50933 0.0267 0.76613 0.13467-0.786-1.128-1.6755-2.0267-2.4375-1.6747-2.6547 1.268-4.4527 8.5427-4.0833 12.453" fill="#a6bde6"/><g transform="matrix(.13333 0 0 -.13333 0 462.55)"><g clip-path="url(#m)"><path d="m2045.8 1695.5v-535.81c0-132.14-131.09-179.47-292.78-179.47-161.7 0-292.79 47.328-292.79 179.47v542.13" fill="url(#l)"/></g></g><path d="m191.81 235.63v72.284c0 17.224 14.889 26.712 41.924 26.712 12.168 0 21.925-1.9213 29.004-5.7079 8.4493-4.5227 12.917-11.784 12.917-21.004v-71.441c0-1.536-1.292-2.7813-2.884-2.7813s-2.8813 1.2453-2.8813 2.7813v71.441c0 7.2787-3.2573 12.556-9.9533 16.141-6.1253 3.2733-15.184 5.0053-26.203 5.0053-16.493 0-36.152-3.672-36.152-21.147v-72.284c0-1.5387-1.2947-2.784-2.8867-2.784s-2.8853 1.2453-2.8853 2.784" fill="#363254"/><path d="m211.81 307.83c0 7.1267-4.1293 12.929-9.2267 12.929-5.1067 0-9.2347-5.8027-9.2347-12.929 0-7.136 4.128-23.257 9.2347-23.257 5.0973 0 9.2267 16.121 9.2267 23.257" fill="#7483ca"/><path d="m194.31 307.83c0-3.644 1.0947-9.408 2.6587-14.013 1.74-5.1293 3.8933-8.3173 5.6173-8.3173 3.8867 0 8.2667 14.568 8.2667 22.331 0 6.6187-3.708 12-8.2667 12-4.564 0-8.276-5.3813-8.276-12zm0.83066-14.591c-1.6213 4.7693-2.7533 10.772-2.7533 14.591 0 7.6387 4.5747 13.856 10.199 13.856 5.6187 0 10.188-6.2173 10.188-13.856 0-6.9747-4.06-24.184-10.188-24.184-3.464 0-5.96 5.2133-7.4453 9.5933" fill="#363254"/><path d="m195.84 309.13c0-6.868 4.992-19.236 8.6387-19.236 0.35067 0 0.692 0.18 1.0227 0.44134-0.91467-2.172-1.956-3.6147-3.0613-3.6147-3.652 0-6.6 15.541-6.6 22.409" fill="#839ad6"/><path d="m216.17 314.69c0 5.5147-3.2827 9.9693-7.3413 9.9693-4.0547 0-7.3427-4.4547-7.3427-9.9693 0-5.5213 3.288-17.957 7.3427-17.957 4.0587 0 7.3413 12.436 7.3413 17.957" fill="#7483ca"/><path d="m202.45 314.69c0-5.772 3.4427-17.028 6.38-17.028 2.9333 0 6.3787 11.256 6.3787 17.028 0 4.9867-2.8627 9.0467-6.3787 9.0467-3.52 0-6.38-4.06-6.38-9.0467zm-1.9227 0c0 6.0147 3.724 10.9 8.3027 10.9 4.5787 0 8.3027-4.8853 8.3027-10.9 0-4.7-2.9467-18.884-8.3027-18.884-5.36 0-8.3027 14.184-8.3027 18.884" fill="#363254"/><path d="m204.57 311.41c-0.37467-3.92 3.0693-10.432 5.752-10.911 0.25333-0.0347 0.512 0.0227 0.76533 0.132-0.78533-1.128-1.6747-2.028-2.4373-1.6747-2.656 1.268-4.4547 8.5413-4.08 12.453" fill="#839ad6"/><g transform="matrix(.13333 0 0 -.13333 0 462.55)"><g clip-path="url(#x)"><path d="m903.8 2433.9c114.03-185.4 101.88-342.02-50.055-424.12-90.965-49.18-40.887-114.04-40.887-114.04" fill="url(#k)"/></g></g><path d="m119.04 135.63c-1.3724 0.78533-1.8271 2.4933-1.0109 3.8147 8.4636 13.753 11.492 26.209 8.7636 36.013-1.9401 6.9693-6.7787 12.584-14.364 16.689-4.7948 2.5893-7.6547 5.856-8.5052 9.704-1.1572 5.2293 2.0141 9.4147 2.15 9.5893 0.94587 1.2253 2.7308 1.4733 4.0104 0.57334 1.2767-0.90134 1.5557-2.6387 0.63027-3.8787-0.014-0.024-1.7719-2.4307-1.138-5.1747 0.50773-2.1947 2.4161-4.1987 5.6692-5.9587 8.9991-4.8667 14.761-11.625 17.12-20.103 3.1393-11.287-0.098-25.221-9.3756-40.296-0.81147-1.3227-2.5848-1.756-3.95-0.97333" fill="#080604"/><g transform="matrix(.13333 0 0 -.13333 0 462.55)"><g clip-path="url(#w)"><path d="m1569.9 2565.3s-189.32 2.23-881.04-20.69c-691.68-22.91-666.16-270.94-667.23-627.14v-856.76c0-72.468 62.793-101.7 140.27-101.7 77.469 0 140.36 29.231 140.36 101.7 0 0 17.863 244.81 33.285 393.73 34.5 541.01 687.58-88.96 1162.3-59.56 431.41 26.74 771.15 175.65 771.15 529.54 0 353.97-222.65 640.88-699.12 640.88" fill="url(#j)"/></g></g><path d="m5.7687 321.12v-114.23c0 0.0107 0.00729-5.0333 0.00729-5.0333 0.015627-43.931 0.02812-72.953 86.17-75.807 91.034-3.0133 117.09-2.76 117.34-2.7587h0.0347c29.004 0 52.639 8.36 68.348 24.173 14.383 14.472 21.984 34.7 21.984 58.499 0 50.931-54.447 64.997-100.12 67.829-24.039 1.4853-52.393-10.4-77.41-20.889-28.043-11.755-52.26-21.905-67.171-13.093-7.8756 4.6533-12.156 14.024-13.089 28.647-2.0267 19.56-4.4163 52.141-4.4385 52.473-0.0068 9.5707-9.9251 10.973-15.837 10.973-5.9063 0-15.819-1.4025-15.819-10.779zm85.983-200.63c-91.715 3.036-91.731 35.889-91.744 81.36l-0.0072917 5.0293v114.24c0 10.232 8.0714 16.348 21.588 16.348 13.529 0 21.599-6.1156 21.599-16.348 0.01667-0.13467 2.3948-32.637 4.4245-52.223 0.8172-12.783 4.2025-20.709 10.353-24.348 12.356-7.2973 36.395 2.7813 61.859 13.455 25.617 10.739 54.649 22.912 80.079 21.336 68.045-4.22 105.52-30.28 105.52-73.381 0-25.259-8.1573-46.817-23.587-62.351-16.823-16.932-41.899-25.884-72.513-25.884h0.0347c-0.252-3e-3 -26.368-0.26533-117.6 2.764" fill="#363254"/><g transform="matrix(.13333 0 0 -.13333 0 462.55)"><g clip-path="url(#v)"><path d="m40.508 1894c0.7383-80.46-10.578-783.24 33.809-825.44-13.945 31.12 16.562 711.97 16.172 754.76l-0.4102 25.04v35.37c-17.109 6.32-33.715 14.09-49.746 22.98l0.1758-12.71" fill="url(#i)"/></g></g><g transform="matrix(.13333 0 0 -.13333 0 462.55)"><g clip-path="url(#u)"><path d="m1569.6 2541.8s-185.21 2.18-862-20.24c-676.77-22.42-666.38-271.78-666.38-607.02l0.1406-12.4c15.664-8.89 31.898-16.66 48.559-22.99 0.1563 317.27 13.648 550.06 666.41 571.68 676.77 22.42 862.04 20.24 862.04 20.24 258.82 0 437-87.38 547.94-223.71-102.14 176.42-295.52 294.44-596.7 294.44" fill="url(#h)"/></g></g><g transform="matrix(.13333 0 0 -.13333 0 462.55)"><g clip-path="url(#t)"><path d="m1333.9 1456.3v-381.58c0-132.12-131.13-179.57-292.82-179.57-161.7 0-292.76 47.45-292.76 179.57v580.79" fill="url(#g)"/></g></g><path d="m96.896 241.82v77.439c0 17.233 14.891 26.722 41.918 26.722 27.036 0 41.928-9.4891 41.928-26.722v-50.877c0-1.536-1.2947-2.7827-2.8853-2.7827s-2.884 1.2467-2.884 2.7827v50.877c0 17.489-19.661 21.159-36.159 21.159-16.489 0-36.15-3.6699-36.15-21.159v-77.439c0-1.536-1.2921-2.7813-2.8844-2.7813-1.5927 0-2.8843 1.2453-2.8843 2.7813" fill="#363254"/><path d="m124.34 324.19c0 6.6268-5.5119 12.001-12.318 12.001-6.8057 0-12.32-5.3745-12.32-12.001 0-6.6347 5.5141-21.611 12.32-21.611 6.8063 0 12.318 14.976 12.318 21.611" fill="#8b9dd7"/><path d="m100.66 324.19c0-6.46 5.4917-20.687 11.358-20.687 5.8667 0 11.358 14.227 11.358 20.687 0 6.1091-5.0916 11.075-11.358 11.075-6.2589 0-11.358-4.9657-11.358-11.075zm-1.9245 0c0 7.1279 5.9584 12.929 13.282 12.929 7.3249 0 13.282-5.8016 13.282-12.929 0-6.7213-5.6052-22.544-13.282-22.544-7.6704 0-13.282 15.823-13.282 22.544" fill="#363254"/><path d="m101.8 324.98c0-5.9347 6.8973-16.596 11.944-16.596 0.48066 0 0.94733 0.152 1.4135 0.384-1.2713-1.8747-2.7063-3.1227-4.2301-3.1227-5.0485 0-9.1271 13.408-9.1271 19.335" fill="#a6bde6"/><path d="m134.37 325.13c0 8.7403-5.7093 15.852-12.753 15.852-7.0541 0-12.763-7.112-12.763-15.852 0-8.752 5.7093-28.516 12.763-28.516 7.0437 0 12.753 19.764 12.753 28.516" fill="#8b9dd7"/><path d="m109.82 325.13c0-8.62 5.7093-27.591 11.803-27.591 6.0923 0 11.793 18.971 11.793 27.591 0 8.2267-5.2893 14.923-11.793 14.923-6.5057 0-11.803-6.6959-11.803-14.923zm-1.9224 0c0 9.2507 6.1583 16.78 13.725 16.78 7.5641 0 13.716-7.5292 13.716-16.78 0-8.7853-5.7923-29.441-13.716-29.441-7.9265 0-13.725 20.656-13.725 29.441" fill="#363254"/><path d="m112.3 326.71c0-8.428 6.9041-23.575 11.945-23.575 0.48013 0 0.9536 0.21866 1.4124 0.54133-1.2624-2.6747-2.7063-4.4373-4.2291-4.4373-5.0491 0-9.1281 19.055-9.1281 27.471" fill="#a6bde6"/><path d="m141.07 329.84c0 6.1875-4.1093 11.203-9.1805 11.203-5.0692 0-9.1792-5.0151-9.1792-11.203 0-6.2176 4.11-20.202 9.1792-20.202 5.0712 0 9.1805 13.984 9.1805 20.202" fill="#8b9dd7"/><path d="m123.67 329.84c0-6.7016 4.3589-19.275 8.2177-19.275 3.8685 0 8.2192 12.573 8.2192 19.275 0 5.6692-3.684 10.273-8.2192 10.273-4.5301 0-8.2177-4.6037-8.2177-10.273zm-1.9233 0c0 6.6891 4.5531 12.13 10.141 12.13 5.5979 0 10.141-5.4411 10.141-12.13 0-6.0923-4.04-21.128-10.141-21.128-6.0979 0-10.141 15.036-10.141 21.128" fill="#363254"/><path d="m126.57 326.14c-0.4652-4.4187 3.8375-11.744 7.1893-12.273 0.316-0.0507 0.63734 0.024 0.96134 0.14533-0.984-1.2733-2.096-2.2827-3.0487-1.8813-3.3219 1.4267-5.5672 9.6053-5.102 14.009" fill="#a6bde6"/><g transform="matrix(.13333 0 0 -.13333 0 462.55)"><g clip-path="url(#r)"><path d="m2229.9 1718.5v-628.88c0-132.11-131.12-179.53-292.81-179.53-161.71 0-292.75 47.418-292.75 179.53v361.33" fill="url(#f)"/></g></g><path d="m294.43 233.42v83.851c0 17.487-19.661 21.155-36.153 21.155-16.488 0-36.148-3.6677-36.148-21.155v-48.177c0-1.536-1.292-2.784-2.8853-2.784-1.592 0-2.884 1.248-2.884 2.784v48.177c0 17.231 14.887 26.723 41.917 26.723 27.033 0 41.923-9.4921 41.923-26.723v-83.851c0-1.5373-1.2893-2.78-2.8813-2.78-1.5947 0-2.888 1.2427-2.888 2.78" fill="#363254"/><path d="m243.81 322.2c0 6.6227-5.5147 11.996-12.32 11.996-6.8053 0-12.319-5.3735-12.319-11.996 0-6.6347 5.5133-21.613 12.319-21.613 6.8053 0 12.32 14.979 12.32 21.613" fill="#8b9dd7"/><path d="m220.13 322.2c0-6.4627 5.4893-20.683 11.356-20.683 5.8693 0 11.36 14.22 11.36 20.683 0 6.104-5.0973 11.073-11.36 11.073-6.2613 0-11.356-4.9692-11.356-11.073zm-1.924 0c0 7.1279 5.956 12.928 13.28 12.928s13.281-5.8 13.281-12.928c0-6.7227-5.6067-22.54-13.281-22.54-7.672 0-13.28 15.817-13.28 22.54" fill="#363254"/><path d="m221.27 322.99c0-5.932 6.896-16.592 11.944-16.592 0.48133 0 0.94666 0.15067 1.4133 0.38-1.2693-1.8747-2.704-3.1213-4.2293-3.1213-5.048 0-9.128 13.409-9.128 19.333" fill="#a6bde6"/><path d="m253.84 323.13c0 8.7453-5.708 15.856-12.757 15.856-7.0547 0-12.763-7.1104-12.763-15.856 0-8.752 5.708-28.511 12.763-28.511 7.0493 0 12.757 19.759 12.757 28.511" fill="#8b9dd7"/><path d="m229.28 323.13c0-8.62 5.7053-27.585 11.801-27.585 6.0947 0 11.795 18.965 11.795 27.585 0 8.2292-5.292 14.928-11.795 14.928-6.5093 0-11.801-6.6989-11.801-14.928zm-1.9227 0c0 9.2532 6.156 16.78 13.724 16.78 7.564 0 13.717-7.5271 13.717-16.78 0-8.7813-5.7907-29.443-13.717-29.443-7.9307 0-13.724 20.661-13.724 29.443" fill="#363254"/><path d="m231.76 324.72c0-8.4267 6.904-23.573 11.943-23.573 0.48267 0 0.95467 0.21734 1.4147 0.53867-1.2613-2.6747-2.704-4.4333-4.2307-4.4333-5.048 0-9.1267 19.048-9.1267 27.468" fill="#a6bde6"/><path d="m260.53 327.84c0 6.1904-4.108 11.206-9.1773 11.206-5.0693 0-9.18-5.0152-9.18-11.206 0-6.2147 4.1107-20.203 9.18-20.203 5.0693 0 9.1773 13.988 9.1773 20.203" fill="#8b9dd7"/><path d="m243.14 327.84c0-6.7 4.3547-19.271 8.22-19.271 3.864 0 8.2187 12.571 8.2187 19.271 0 5.668-3.6907 10.277-8.2187 10.277-4.5307 0-8.22-4.6095-8.22-10.277zm-1.9227 0c0 6.692 4.548 12.131 10.143 12.131 5.592 0 10.139-5.4385 10.139-12.131 0-6.0893-4.04-21.128-10.139-21.128-6.1013 0-10.143 15.039-10.143 21.128" fill="#363254"/><path d="m246.04 324.15c-0.464-4.42 3.8373-11.743 7.1893-12.273 0.31467-0.0493 0.63733 0.02 0.96133 0.14533-0.98666-1.276-2.096-2.2787-3.0493-1.8853-3.3227 1.4267-5.5653 9.608-5.1013 14.013" fill="#a6bde6"/><path d="m27.342 160.29c-1.0187 1.384-0.65933 3.2867 0.80893 4.2547 1.4625 0.96667 3.4787 0.62134 4.4963-0.75866 5.8005-7.8813 18.847-10.053 25.05-7.8147 1.2359 0.448 2.7979 0.25333 3.4807-0.444 0.68227-0.688 0.236-1.6133-1.0027-2.06-8.4927-3.0693-25.153-3.6253-32.833 6.8227" fill="#363254"/><path d="m52.482 194.94c-5.3568 1.1293-10.08-1.868-10.544-6.692-0.46307-4.832 3.5079-9.66 8.8661-10.8 5.3625-1.1333 10.084 1.856 10.552 6.6907 0.45987 4.8307-3.5099 9.6573-8.874 10.801zm11.077-11.445c-0.53693-5.6293-6.1145-9.0933-12.471-7.756-6.3484 1.344-11.065 6.9813-10.531 12.603 0.5344 5.6187 6.114 9.092 12.463 7.76 6.3557-1.348 11.073-6.984 10.539-12.607" fill="#363254"/><path d="m61.017 184.53c0.4068 4.2467-3.0667 8.5-7.7573 9.492-4.7099 1.0027-8.8396-1.64-9.2593-5.8867-0.4036-4.2467 3.0703-8.496 7.7631-9.4893 4.7052-1 8.8463 1.6333 9.2536 5.884" fill="#fcfcfc"/><path d="m60.33 184.57c-1.2704-3.236-4.6437-5.112-7.5047-4.2107-1.5333 0.47466-2.5839 1.66-3.0735 3.1413l3.9989 1.9787-3.674 2.652c1.3615 3.052 4.5819 4.804 7.3609 3.9333 2.8724-0.912 4.1615-4.26 2.8923-7.4947" fill="#363254"/><path d="m57.385 183.18c0.71187-0.10267 1.55 0.75866 1.8547 1.9547 0.3072 1.1813-0.02347 2.232-0.75107 2.344-0.71973 0.108-1.5563-0.76-1.8645-1.952-0.29907-1.18 0.03853-2.228 0.76093-2.3467" fill="#fff"/><path d="m45.752 178.31c-5.0141 3.8693-6.5991 9.4893-3.2115 12.675-0.29373-0.12533 0.34573 0.69333 0.07493 0.54133-5.3339-2.9573-6.2249-11.739-1.3145-16.905 4.2151-4.44 16.864-7.732 16.77-6.02-0.52187 1.964-4.2249 4.4573-8.8229 7.1667-1.4801 0.84133-2.5473 1.812-3.4963 2.5427" fill="#363254"/><path d="m128.14 232.84c-0.25827 1.3173 0.6328 2.3987 1.9771 2.3987h7.7249c1.3467 0 2.6547-1.0813 2.9147-2.3987l2.0573-10.603c0.25866-1.32 1.564-2.3987 2.912-2.3987h8.36c4.768 0 8.6907-0.50134 11.767-1.5053 3.0827-0.99866 5.8773-2.6813 8.4013-5.04 2.1093-1.9413 3.824-4.084 5.1307-6.432 1.3067-2.34 2.24-4.9267 2.7867-7.756 1.336-6.864 0.0213-11.971-3.016-16.049-3.8147-5.1067-13.549-5.3773-13.549-5.3773-1.3307-0.2-3.5173-0.37067-4.8627-0.37067h-19.369c-1.344 0-2.652 1.0827-2.912 2.404zm30.267-46.389c4.796 0 7.9867 0.88666 9.5853 2.656 1.5947 1.7693 1.9773 4.8093 1.144 9.112-0.876 4.484-2.556 7.688-5.044 9.604-2.488 1.9147-8.9307 2.608-8.9307 2.608-1.34 0.14666-3.5347 0.26533-4.8773 0.26533h-2.7813c-1.344 0-2.2387-1.0813-1.98-2.4l3.7787-19.443c0.256-1.32 1.5667-2.4027 2.9093-2.4027h6.196" fill="#363254"/><path d="m128.14 232.84c-0.25827 1.3173 0.6328 2.3987 1.9771 2.3987h7.7249c1.3467 0 2.6547-1.0813 2.9147-2.3987l2.0573-10.603c0.25866-1.32 1.564-2.3987 2.912-2.3987h8.36c4.768 0 8.6907-0.50134 11.767-1.5053 3.0827-0.99866 5.8773-2.6813 8.4013-5.04 2.1093-1.9413 3.824-4.084 5.1307-6.432 1.3067-2.34 2.24-4.9267 2.7867-7.756 1.336-6.864 0.0213-11.971-3.016-16.049-3.8147-5.1067-13.549-5.3773-13.549-5.3773-1.3307-0.2-3.5173-0.37067-4.8627-0.37067h-19.369c-1.344 0-2.652 1.0827-2.912 2.404zm30.267-46.389c4.796 0 7.9867 0.88666 9.5853 2.656 1.5947 1.7693 1.9773 4.8093 1.144 9.112-0.876 4.484-2.556 7.688-5.044 9.604-2.488 1.9147-8.9307 2.608-8.9307 2.608-1.34 0.14666-3.5347 0.26533-4.8773 0.26533h-2.7813c-1.344 0-2.2387-1.0813-1.98-2.4l3.7787-19.443c0.256-1.32 1.5667-2.4027 2.9093-2.4027z" fill="none" stroke="#fff" stroke-width="5.3333"/><path d="m194.34 164.31c0.256-1.3173 1.564-2.3973 2.908-2.3973h7.628c1.3467 0 2.236 1.08 1.9773 2.3973l-2.0587 10.603c-0.25734 1.3213 0.63866 2.396 1.98 2.396h6.2573c1.344 0 3.54 0.116 4.876 0.25333 0 0 9.1253 0.10667 12.087 3.4213 2.412 2.6987 3.46 6.416 2.3947 11.897l-4.768 24.559c-0.25466 1.32-1.5667 2.4-2.912 2.4h-7.824c-1.3453 0-2.2373-1.08-1.98-2.4l4.0507-20.833c0.256-1.3187 0.544-3.496 0.64267-4.84 0 0 0.18-2.4653-0.80534-3.5227-0.98133-1.0613-3.0773-1.5893-6.28-1.5893h-7.5573c-1.3467 0-2.6507 1.0773-2.912 2.3973l-5.5107 28.388c-0.25734 1.32-1.5653 2.4-2.9107 2.4h-7.6293c-1.3453 0-2.2347-1.08-1.9787-2.4l10.325-53.129" fill="#363254"/><path d="m194.34 164.31c0.256-1.3173 1.564-2.3973 2.908-2.3973h7.628c1.3467 0 2.236 1.08 1.9773 2.3973l-2.0587 10.603c-0.25734 1.3213 0.63866 2.396 1.98 2.396h6.2573c1.344 0 3.54 0.116 4.876 0.25333 0 0 9.1253 0.10667 12.087 3.4213 2.412 2.6987 3.46 6.416 2.3947 11.897l-4.768 24.559c-0.25466 1.32-1.5667 2.4-2.912 2.4h-7.824c-1.3453 0-2.2373-1.08-1.98-2.4l4.0507-20.833c0.256-1.3187 0.544-3.496 0.64267-4.84 0 0 0.18-2.4653-0.80534-3.5227-0.98133-1.0613-3.0773-1.5893-6.28-1.5893h-7.5573c-1.3467 0-2.6507 1.0773-2.912 2.3973l-5.5107 28.388c-0.25734 1.32-1.5653 2.4-2.9107 2.4h-7.6293c-1.3453 0-2.2347-1.08-1.9787-2.4z" fill="none" stroke="#fff" stroke-width="5.3333"/><path d="m233.03 232.84c-0.25867 1.3173 0.63333 2.3987 1.98 2.3987h7.724c1.3413 0 2.656-1.0813 2.9107-2.3987l2.0587-10.603c0.25734-1.32 1.568-2.3987 2.9093-2.3987h8.364c4.7667 0 8.6867-0.50134 11.771-1.5053 3.0733-0.99866 5.8733-2.6813 8.3933-5.04 2.116-1.9413 3.8227-4.084 5.1333-6.432 1.308-2.34 2.2373-4.9267 2.788-7.756 1.3347-6.864 0.12667-12.049-3.0187-16.049-3.9027-4.9653-13.551-5.3773-13.551-5.3773-1.3307-0.2-3.5187-0.37067-4.8627-0.37067h-19.369c-1.3427 0-2.6547 1.0827-2.9093 2.404zm30.271-46.389c4.7907 0 7.984 0.88666 9.5853 2.656 1.5907 1.7693 1.972 4.8093 1.1373 9.112-0.87466 4.484-2.548 7.688-5.04 9.604-2.492 1.9147-8.9347 2.608-8.9347 2.608-1.3347 0.14666-3.528 0.26533-4.876 0.26533h-2.784c-1.3467 0-2.232-1.0813-1.9773-2.4l3.776-19.443c0.25867-1.32 1.568-2.4027 2.912-2.4027h6.2013" fill="#363254"/><path d="m233.03 232.84c-0.25867 1.3173 0.63333 2.3987 1.98 2.3987h7.724c1.3413 0 2.656-1.0813 2.9107-2.3987l2.0587-10.603c0.25734-1.32 1.568-2.3987 2.9093-2.3987h8.364c4.7667 0 8.6867-0.50134 11.771-1.5053 3.0733-0.99866 5.8733-2.6813 8.3933-5.04 2.116-1.9413 3.8227-4.084 5.1333-6.432 1.308-2.34 2.2373-4.9267 2.788-7.756 1.3347-6.864 0.12667-12.049-3.0187-16.049-3.9027-4.9653-13.551-5.3773-13.551-5.3773-1.3307-0.2-3.5187-0.37067-4.8627-0.37067h-19.369c-1.3427 0-2.6547 1.0827-2.9093 2.404zm30.271-46.389c4.7907 0 7.984 0.88666 9.5853 2.656 1.5907 1.7693 1.972 4.8093 1.1373 9.112-0.87466 4.484-2.548 7.688-5.04 9.604-2.492 1.9147-8.9347 2.608-8.9347 2.608-1.3347 0.14666-3.528 0.26533-4.876 0.26533h-2.784c-1.3467 0-2.232-1.0813-1.9773-2.4l3.776-19.443c0.25867-1.32 1.568-2.4027 2.912-2.4027z" fill="none" stroke="#fff" stroke-width="5.3333"/><path d="m128.14 232.84c-0.25827 1.3173 0.6328 2.3987 1.9771 2.3987h7.7249c1.3467 0 2.6547-1.0813 2.9147-2.3987l2.0573-10.603c0.25866-1.32 1.564-2.3987 2.912-2.3987h8.36c4.768 0 8.6907-0.50134 11.767-1.5053 3.0827-0.99866 5.8773-2.6813 8.4013-5.04 2.1093-1.9413 3.824-4.084 5.1307-6.432 1.3067-2.34 2.24-4.9267 2.7867-7.756 1.336-6.864 0.0213-11.971-3.016-16.049-3.8147-5.1067-13.549-5.3773-13.549-5.3773-1.3307-0.2-3.5173-0.37067-4.8627-0.37067h-19.369c-1.344 0-2.652 1.0827-2.912 2.404zm30.267-46.389c4.796 0 7.9867 0.88666 9.5853 2.656 1.5947 1.7693 1.9773 4.8093 1.144 9.112-0.876 4.484-2.556 7.688-5.044 9.604-2.488 1.9147-8.9307 2.608-8.9307 2.608-1.34 0.14666-3.5347 0.26533-4.8773 0.26533h-2.7813c-1.344 0-2.2387-1.0813-1.98-2.4l3.7787-19.443c0.256-1.32 1.5667-2.4027 2.9093-2.4027h6.196" fill="#363254"/><path d="m194.34 164.31c0.256-1.3173 1.564-2.3973 2.908-2.3973h7.628c1.3467 0 2.236 1.08 1.9773 2.3973l-2.0587 10.603c-0.25734 1.3213 0.63866 2.396 1.98 2.396h6.2573c1.344 0 3.54 0.116 4.876 0.25333 0 0 9.1253 0.10667 12.087 3.4213 2.412 2.6987 3.46 6.416 2.3947 11.897l-4.768 24.559c-0.25466 1.32-1.5667 2.4-2.912 2.4h-7.824c-1.3453 0-2.2373-1.08-1.98-2.4l4.0507-20.833c0.256-1.3187 0.544-3.496 0.64267-4.84 0 0 0.18-2.4653-0.80534-3.5227-0.98133-1.0613-3.0773-1.5893-6.28-1.5893h-7.5573c-1.3467 0-2.6507 1.0773-2.912 2.3973l-5.5107 28.388c-0.25734 1.32-1.5653 2.4-2.9107 2.4h-7.6293c-1.3453 0-2.2347-1.08-1.9787-2.4l10.325-53.129" fill="#363254"/><path d="m233.03 232.84c-0.25867 1.3173 0.63333 2.3987 1.98 2.3987h7.724c1.3413 0 2.656-1.0813 2.9107-2.3987l2.0587-10.603c0.25734-1.32 1.568-2.3987 2.9093-2.3987h8.364c4.7667 0 8.6867-0.50134 11.771-1.5053 3.0733-0.99866 5.8733-2.6813 8.3933-5.04 2.116-1.9413 3.8227-4.084 5.1333-6.432 1.308-2.34 2.2373-4.9267 2.788-7.756 1.3347-6.864 0.12667-12.049-3.0187-16.049-3.9027-4.9653-13.551-5.3773-13.551-5.3773-1.3307-0.2-3.5187-0.37067-4.8627-0.37067h-19.369c-1.3427 0-2.6547 1.0827-2.9093 2.404zm30.271-46.389c4.7907 0 7.984 0.88666 9.5853 2.656 1.5907 1.7693 1.972 4.8093 1.1373 9.112-0.87466 4.484-2.548 7.688-5.04 9.604-2.492 1.9147-8.9347 2.608-8.9347 2.608-1.3347 0.14666-3.528 0.26533-4.876 0.26533h-2.784c-1.3467 0-2.232-1.0813-1.9773-2.4l3.776-19.443c0.25867-1.32 1.568-2.4027 2.912-2.4027h6.2013" fill="#363254"/><g transform="matrix(.13333 0 0 -.13333 0 462.55)"><g clip-path="url(#q)"><path d="m571.88 2500.6s171.53 117.93 279.87 158.35c34.531 12.89 283.67 78.71 324.06-351.49 22.08-235.55-17.68-398.24-210.83-427.71-115.59-17.66-97.691-103.81-97.691-103.81" fill="url(#d)"/></g></g><path d="m112.52 105.43c-14.614 5.4547-36.999 20.791-37.947 21.443-1.2947 0.89067-1.5979 2.6293-0.67187 3.8787 0.92293 1.2507 2.7267 1.5413 4.0224 0.64934 0.2256-0.15067 22.743-15.58 36.676-20.783 0.43586-0.16 10.691-3.872 20.533 2.0227 10.247 6.14 16.735 20.833 18.772 42.501 3.244 34.629-4.44 50.784-25.692 54.031-6.0249 0.91733-10.41 3.2293-13.04 6.8787-3.4527 4.7773-2.412 10.035-2.3631 10.257 0.31307 1.4947 1.814 2.4587 3.3683 2.172 1.5563-0.28534 2.5776-1.7427 2.2921-3.2453-7e-3 -0.0267-0.58066-3.264 1.4792-6.064 1.7068-2.3187 4.7891-3.836 9.1645-4.5067 31.596-4.8213 32.918-34.612 30.538-60.025-2.2387-23.812-9.468-39.533-21.473-46.724-12.053-7.22-24.298-2.992-25.658-2.4853" fill="#363254"/><g transform="matrix(.13333 0 0 -.13333 0 462.55)"><g clip-path="url(#p)"><path d="m747.34 2531.8c194.21 121.45 302.03 59.35 302.03 59.35-84.444 77.21-179.44 51.62-200.44 43.74-107.97-40.42-316.48-189.8-316.48-189.8s-28.195-50.01 27.989-39.16c0 0 122.21 85.38 186.91 125.87" fill="url(#c)"/></g></g><path d="m90.302 201.39c-0.22507 13.147-4.5776 25.119-11.367 31.225-3.0803 2.7747-6.5161 4.148-9.9453 3.98-1.0579-0.0573-1.9593 0.728-2.0203 1.7507-0.05053 1.0267 0.76293 1.896 1.8244 1.9493 4.4927 0.22667 8.9047-1.4907 12.767-4.9667 7.5245-6.7733 12.346-19.755 12.586-33.884 0.0208-1.0187-0.824-1.8653-1.8876-1.8813-1.0635-0.0147-1.938 0.80267-1.9572 1.8267" fill="#363254"/><path d="m98.631 192.01c-1.4484 3.3213-3.9796 5.4373-6.9505 5.7907-2.8963 0.34134-5.8391-1.0133-7.8744-3.628-0.63387-0.81733-1.8437-0.98533-2.6923-0.36933-0.8484 0.61333-1.0219 1.776-0.3828 2.5933 2.8724 3.6947 7.1437 5.5947 11.421 5.088 4.3765-0.528 8.0265-3.4573 10.026-8.04 0.40987-0.94533-0.0541-2.024-1.0292-2.4253-0.9812-0.396-2.1036 0.048-2.5183 0.99067" fill="#363254"/></g></svg>
